<svg width="26" height="26" viewBox="0 0 26 26" fill="none" xmlns="http://www.w3.org/2000/svg">
<path d="M3.4342 8.06L13 13.5958L22.5008 8.09246" stroke="#FF6161" stroke-width="1.5" stroke-linecap="round" stroke-linejoin="round"/>
<path d="M13 23.4108V13.585" stroke="#FF6161" stroke-width="1.5" stroke-linecap="round" stroke-linejoin="round"/>
<path d="M23.4109 9.93419V16.0659C23.4109 16.1201 23.4109 16.1633 23.4001 16.2175C22.6417 15.5567 21.6667 15.1667 20.5834 15.1667C19.5651 15.1667 18.6226 15.5242 17.8751 16.12C16.8784 16.9109 16.2501 18.135 16.2501 19.5C16.2501 20.3125 16.4775 21.0817 16.8784 21.7317C16.9759 21.905 17.095 22.0676 17.225 22.2192L15.2426 23.3134C14.0076 24.0067 11.9925 24.0067 10.7575 23.3134L4.97255 20.1067C3.66171 19.3809 2.58923 17.5609 2.58923 16.0659V9.93419C2.58923 8.43919 3.66171 6.61921 4.97255 5.89338L10.7575 2.68669C11.9925 1.99335 14.0076 1.99335 15.2426 2.68669L21.0276 5.89338C22.3384 6.61921 23.4109 8.43919 23.4109 9.93419Z" stroke="#FF6161" stroke-width="1.5" stroke-linecap="round" stroke-linejoin="round"/>
<path d="M24.9167 19.5C24.9167 20.3125 24.6892 21.0817 24.2883 21.7317C24.0608 22.1217 23.7683 22.4684 23.4325 22.75C22.6742 23.4325 21.6775 23.8334 20.5833 23.8334C19.0017 23.8334 17.6258 22.9884 16.8783 21.7317C16.4775 21.0817 16.25 20.3125 16.25 19.5C16.25 18.135 16.8783 16.9109 17.875 16.12C18.6225 15.5242 19.565 15.1667 20.5833 15.1667C22.9775 15.1667 24.9167 17.1059 24.9167 19.5Z" stroke="#FF6161" stroke-width="1.5" stroke-miterlimit="10" stroke-linecap="round" stroke-linejoin="round"/>
<path d="M21.7426 20.6266L19.4459 18.3408" stroke="#FF6161" stroke-width="1.5" stroke-miterlimit="10" stroke-linecap="round" stroke-linejoin="round"/>
<path d="M21.7209 18.3734L19.4242 20.6592" stroke="#FF6161" stroke-width="1.5" stroke-miterlimit="10" stroke-linecap="round" stroke-linejoin="round"/>
</svg>
