<svg width="26" height="26" viewBox="0 0 26 26" fill="none" xmlns="http://www.w3.org/2000/svg">
<path d="M13.0001 15.1667H14.0834C15.2751 15.1667 16.2501 14.1917 16.2501 13V2.16669H6.50006C4.87506 2.16669 3.4559 3.06584 2.71924 4.38751" stroke="#0D77A4" stroke-width="1.5" stroke-linecap="round" stroke-linejoin="round"/>
<path d="M2.16663 18.4167C2.16663 20.215 3.61829 21.6667 5.41663 21.6667H6.49996C6.49996 20.475 7.47496 19.5 8.66663 19.5C9.85829 19.5 10.8333 20.475 10.8333 21.6667H15.1666C15.1666 20.475 16.1416 19.5 17.3333 19.5C18.525 19.5 19.5 20.475 19.5 21.6667H20.5833C22.3816 21.6667 23.8333 20.215 23.8333 18.4167V15.1667H20.5833C19.9875 15.1667 19.5 14.6792 19.5 14.0834V10.8334C19.5 10.2375 19.9875 9.75002 20.5833 9.75002H21.9808L20.1283 6.51086C19.7383 5.8392 19.0233 5.41669 18.2433 5.41669H16.25V13C16.25 14.1917 15.275 15.1667 14.0833 15.1667H13" stroke="#0D77A4" stroke-width="1.5" stroke-linecap="round" stroke-linejoin="round"/>
<path d="M8.66667 23.8333C9.86328 23.8333 10.8333 22.8633 10.8333 21.6667C10.8333 20.47 9.86328 19.5 8.66667 19.5C7.47005 19.5 6.5 20.47 6.5 21.6667C6.5 22.8633 7.47005 23.8333 8.66667 23.8333Z" stroke="#0D77A4" stroke-width="1.5" stroke-linecap="round" stroke-linejoin="round"/>
<path d="M17.3333 23.8333C18.5299 23.8333 19.5 22.8633 19.5 21.6667C19.5 20.47 18.5299 19.5 17.3333 19.5C16.1367 19.5 15.1666 20.47 15.1666 21.6667C15.1666 22.8633 16.1367 23.8333 17.3333 23.8333Z" stroke="#0D77A4" stroke-width="1.5" stroke-linecap="round" stroke-linejoin="round"/>
<path d="M23.8333 13V15.1667H20.5833C19.9875 15.1667 19.5 14.6792 19.5 14.0833V10.8333C19.5 10.2375 19.9875 9.75 20.5833 9.75H21.9808L23.8333 13Z" stroke="#0D77A4" stroke-width="1.5" stroke-linecap="round" stroke-linejoin="round"/>
<path d="M2.16663 8.66669H8.66663" stroke="#0D77A4" stroke-width="1.5" stroke-linecap="round" stroke-linejoin="round"/>
<path d="M2.16663 11.9167H6.49996" stroke="#0D77A4" stroke-width="1.5" stroke-linecap="round" stroke-linejoin="round"/>
<path d="M2.16663 15.1667H4.33329" stroke="#0D77A4" stroke-width="1.5" stroke-linecap="round" stroke-linejoin="round"/>
</svg>
