<svg width="26" height="26" viewBox="0 0 26 26" fill="none" xmlns="http://www.w3.org/2000/svg">
<path d="M13 18.1459C12.5667 18.1459 12.1333 18.1133 11.7217 18.0375C9.425 17.7017 7.33416 16.38 6.0125 14.4192C5.09166 13.0325 4.60416 11.4184 4.60416 9.75002C4.60416 5.12419 8.37416 1.35419 13 1.35419C17.6258 1.35419 21.3958 5.12419 21.3958 9.75002C21.3958 11.4184 20.9083 13.0325 19.9875 14.4192C18.655 16.3909 16.5642 17.7017 14.2458 18.0484C13.8667 18.1134 13.4333 18.1459 13 18.1459ZM13 2.97919C9.2625 2.97919 6.22916 6.01252 6.22916 9.75002C6.22916 11.1042 6.61916 12.4042 7.35583 13.5092C8.42833 15.0909 10.1075 16.1525 11.9708 16.4234C12.6642 16.5425 13.3467 16.5425 13.9858 16.4234C15.8817 16.1525 17.5608 15.08 18.6333 13.4983C19.37 12.3933 19.76 11.0933 19.76 9.73918C19.7708 6.01251 16.7375 2.97919 13 2.97919Z" fill="white"/>
<path d="M7.00897 24.4724C6.8573 24.4724 6.71647 24.4508 6.5648 24.4183C5.86063 24.2558 5.31897 23.7141 5.15647 23.0099L4.7773 21.4174C4.75563 21.3199 4.6798 21.2441 4.57147 21.2116L2.78397 20.7891C2.1123 20.6266 1.58147 20.1283 1.3973 19.4674C1.21313 18.8066 1.3973 18.0916 1.8848 17.6041L6.1098 13.3791C6.28313 13.2058 6.52147 13.1191 6.7598 13.1408C6.99813 13.1625 7.2148 13.2924 7.35563 13.4983C8.42813 15.0799 10.1073 16.1524 11.9815 16.4233C12.6748 16.5424 13.3573 16.5424 13.9965 16.4233C15.8923 16.1524 17.5715 15.0799 18.644 13.4983C18.774 13.2924 19.0015 13.1625 19.2398 13.1408C19.4781 13.1191 19.7165 13.2058 19.8898 13.3791L24.1148 17.6041C24.6023 18.0916 24.7865 18.8066 24.6023 19.4674C24.4181 20.1283 23.8765 20.6374 23.2156 20.7891L21.4281 21.2116C21.3306 21.2333 21.2548 21.3091 21.2223 21.4174L20.8431 23.0099C20.6806 23.7141 20.139 24.2558 19.4348 24.4183C18.7306 24.5916 18.0048 24.3424 17.5498 23.7899L12.9998 18.5575L8.4498 23.8008C8.08147 24.2341 7.56147 24.4724 7.00897 24.4724ZM6.5973 15.1991L3.03313 18.7633C2.93563 18.8608 2.94647 18.9691 2.96813 19.0341C2.97897 19.0883 3.03313 19.1966 3.16313 19.2183L4.95063 19.6408C5.6548 19.8033 6.19647 20.3449 6.35897 21.0491L6.73813 22.6416C6.77063 22.7824 6.87897 22.8258 6.94397 22.8474C7.00897 22.8583 7.1173 22.8691 7.2148 22.7608L11.364 17.9833C9.5223 17.6258 7.8323 16.6399 6.5973 15.1991ZM14.6356 17.9724L18.7848 22.7391C18.8823 22.8583 19.0015 22.8583 19.0665 22.8366C19.1315 22.8258 19.229 22.7716 19.2723 22.6308L19.6515 21.0383C19.814 20.3341 20.3556 19.7924 21.0598 19.6299L22.8473 19.2075C22.9773 19.175 23.0315 19.0774 23.0423 19.0233C23.064 18.9691 23.0748 18.8499 22.9773 18.7524L19.4131 15.1883C18.1673 16.6291 16.4881 17.6149 14.6356 17.9724Z" fill="white"/>
<path d="M15.0477 13.9642C14.766 13.9642 14.4302 13.8884 14.0293 13.65L13.0002 13.0325L11.971 13.6392C11.0285 14.2025 10.411 13.8775 10.1835 13.715C9.95599 13.5525 9.46849 13.065 9.71766 11.9925L9.97766 10.8767L9.11099 10.075C8.63432 9.59834 8.46099 9.02419 8.62349 8.50419C8.78599 7.98419 9.26266 7.61585 9.93432 7.50751L11.0935 7.31252L11.646 6.09919C11.9602 5.48169 12.4477 5.13501 13.0002 5.13501C13.5527 5.13501 14.051 5.49254 14.3543 6.11004L14.9935 7.38836L16.066 7.51836C16.7268 7.62669 17.2035 7.995 17.3768 8.515C17.5393 9.035 17.366 9.60918 16.8893 10.0859L15.9902 10.985L16.2718 11.9925C16.521 13.065 16.0335 13.5525 15.806 13.715C15.6868 13.8125 15.4268 13.9642 15.0477 13.9642ZM10.411 9.0892L11.1585 9.83667C11.5052 10.1833 11.6785 10.7684 11.5702 11.245L11.3643 12.1117L12.231 11.6025C12.6968 11.3317 13.3252 11.3317 13.7802 11.6025L14.6468 12.1117L14.4518 11.245C14.3435 10.7575 14.506 10.1833 14.8527 9.83667L15.6002 9.0892L14.6577 8.92668C14.2027 8.85084 13.7477 8.51503 13.5418 8.10337L13.0002 7.04169L12.4585 8.12502C12.2635 8.52585 11.8085 8.87253 11.3535 8.94836L10.411 9.0892Z" fill="white"/>
</svg>
