<svg width="26" height="26" viewBox="0 0 26 26" fill="none" xmlns="http://www.w3.org/2000/svg">
<path d="M3.4342 8.06L13 13.5958L22.5008 8.09246" stroke="#A04AFF" stroke-width="1.5" stroke-linecap="round" stroke-linejoin="round"/>
<path d="M13 23.4108V13.585" stroke="#A04AFF" stroke-width="1.5" stroke-linecap="round" stroke-linejoin="round"/>
<path d="M10.7575 2.68669L4.97255 5.90422C3.66171 6.63005 2.58923 8.45003 2.58923 9.94503V16.0659C2.58923 17.5609 3.66171 19.3809 4.97255 20.1067L10.7575 23.3242C11.9925 24.0067 14.0184 24.0067 15.2534 23.3242L21.0384 20.1067C22.3492 19.3809 23.4217 17.5609 23.4217 16.0659V9.94503C23.4217 8.45003 22.3492 6.63005 21.0384 5.90422L15.2534 2.68669C14.0075 1.99335 11.9925 1.99335 10.7575 2.68669Z" stroke="#A04AFF" stroke-width="1.5" stroke-linecap="round" stroke-linejoin="round"/>
<path d="M18.4167 14.3433V10.3784L8.13586 4.44165" stroke="#A04AFF" stroke-width="1.5" stroke-linecap="round" stroke-linejoin="round"/>
</svg>
