<svg width="26" height="26" viewBox="0 0 26 26" fill="none" xmlns="http://www.w3.org/2000/svg">
<path d="M19.5433 14.6791C19.0883 15.1233 18.8283 15.7625 18.8933 16.445C18.9908 17.615 20.0633 18.4708 21.2333 18.4708H23.2917V19.76C23.2917 22.0025 21.4608 23.8333 19.2183 23.8333H6.78167C4.53917 23.8333 2.70834 22.0025 2.70834 19.76V12.4692C2.70834 10.2267 4.53917 8.39581 6.78167 8.39581H19.2183C21.4608 8.39581 23.2917 10.2267 23.2917 12.4692V14.0292H21.1033C20.4967 14.0292 19.9442 14.2675 19.5433 14.6791Z" stroke="white" stroke-width="1.5" stroke-linecap="round" stroke-linejoin="round"/>
<path d="M2.70834 13.4442V8.49338C2.70834 7.20422 3.49917 6.05584 4.70167 5.60084L13.3033 2.35084C14.6467 1.84167 16.0875 2.83837 16.0875 4.2792V8.39586" stroke="white" stroke-width="1.5" stroke-linecap="round" stroke-linejoin="round"/>
<path d="M24.4387 15.1343V17.366C24.4387 17.9619 23.962 18.4493 23.3554 18.471H21.232C20.062 18.471 18.9895 17.6152 18.892 16.4452C18.827 15.7627 19.087 15.1235 19.542 14.6793C19.9429 14.2677 20.4954 14.0294 21.102 14.0294H23.3554C23.962 14.051 24.4387 14.5385 24.4387 15.1343Z" stroke="white" stroke-width="1.5" stroke-linecap="round" stroke-linejoin="round"/>
<path d="M7.58334 13H15.1667" stroke="white" stroke-width="1.5" stroke-linecap="round" stroke-linejoin="round"/>
</svg>
