<svg width="26" height="26" viewBox="0 0 26 26" fill="none" xmlns="http://www.w3.org/2000/svg">
<path d="M21.6667 8.93752V19.5C21.6667 22.75 19.7275 23.8334 17.3334 23.8334H8.66671C6.27254 23.8334 4.33337 22.75 4.33337 19.5V8.93752C4.33337 5.41669 6.27254 4.60419 8.66671 4.60419C8.66671 5.27585 8.93751 5.88252 9.38168 6.32668C9.82584 6.77085 10.4325 7.04169 11.1042 7.04169H14.8959C16.2392 7.04169 17.3334 5.94752 17.3334 4.60419C19.7275 4.60419 21.6667 5.41669 21.6667 8.93752Z" stroke="#0DA487" stroke-width="1.5" stroke-linecap="round" stroke-linejoin="round"/>
<path d="M17.3333 4.60419C17.3333 5.94752 16.2391 7.04169 14.8958 7.04169H11.1041C10.4325 7.04169 9.82576 6.77085 9.3816 6.32668C8.93743 5.88252 8.66663 5.27585 8.66663 4.60419C8.66663 3.26085 9.76079 2.16669 11.1041 2.16669H14.8958C15.5675 2.16669 16.1742 2.43752 16.6183 2.88169C17.0625 3.32586 17.3333 3.93252 17.3333 4.60419Z" stroke="#0DA487" stroke-width="1.5" stroke-linecap="round" stroke-linejoin="round"/>
<path d="M8.66663 14.0833H13" stroke="#0DA487" stroke-width="1.5" stroke-linecap="round" stroke-linejoin="round"/>
<path d="M8.66663 18.4167H17.3333" stroke="#0DA487" stroke-width="1.5" stroke-linecap="round" stroke-linejoin="round"/>
</svg>
