<svg width="26" height="26" viewBox="0 0 26 26" fill="none" xmlns="http://www.w3.org/2000/svg">
<path d="M19.5 7.75669C19.435 7.74586 19.3592 7.74586 19.2942 7.75669C17.7992 7.70252 16.6075 6.47836 16.6075 4.96169C16.6075 3.41252 17.8533 2.16669 19.4025 2.16669C20.9517 2.16669 22.1975 3.42336 22.1975 4.96169C22.1867 6.47836 20.995 7.70252 19.5 7.75669Z" stroke="white" stroke-width="1.5" stroke-linecap="round" stroke-linejoin="round"/>
<path d="M18.3842 15.6433C19.8683 15.8925 21.5042 15.6325 22.6525 14.8633C24.18 13.845 24.18 12.1767 22.6525 11.1583C21.4933 10.3892 19.8358 10.1292 18.3517 10.3892" stroke="white" stroke-width="1.5" stroke-linecap="round" stroke-linejoin="round"/>
<path d="M6.46751 7.75669C6.53251 7.74586 6.60834 7.74586 6.67334 7.75669C8.16834 7.70252 9.36 6.47836 9.36 4.96169C9.36 3.41252 8.11417 2.16669 6.56501 2.16669C5.01584 2.16669 3.77 3.42336 3.77 4.96169C3.78084 6.47836 4.97251 7.70252 6.46751 7.75669Z" stroke="white" stroke-width="1.5" stroke-linecap="round" stroke-linejoin="round"/>
<path d="M7.58334 15.6433C6.09917 15.8925 4.46334 15.6325 3.31501 14.8633C1.78751 13.845 1.78751 12.1767 3.31501 11.1583C4.47417 10.3892 6.13167 10.1292 7.61584 10.3892" stroke="white" stroke-width="1.5" stroke-linecap="round" stroke-linejoin="round"/>
<path d="M13 15.8492C12.935 15.8383 12.8592 15.8383 12.7942 15.8492C11.2992 15.795 10.1075 14.5708 10.1075 13.0542C10.1075 11.505 11.3533 10.2592 12.9025 10.2592C14.4517 10.2592 15.6975 11.5158 15.6975 13.0542C15.6867 14.5708 14.495 15.8058 13 15.8492Z" stroke="white" stroke-width="1.5" stroke-linecap="round" stroke-linejoin="round"/>
<path d="M9.8475 19.2616C8.32 20.28 8.32 21.9483 9.8475 22.9666C11.5808 24.1258 14.4192 24.1258 16.1525 22.9666C17.68 21.9483 17.68 20.28 16.1525 19.2616C14.43 18.1133 11.5808 18.1133 9.8475 19.2616Z" stroke="white" stroke-width="1.5" stroke-linecap="round" stroke-linejoin="round"/>
</svg>
