<svg width="26" height="26" viewBox="0 0 26 26" fill="none" xmlns="http://www.w3.org/2000/svg">
<path d="M7.29082 21.3417C8.17916 20.3884 9.53332 20.4642 10.3133 21.5042L11.4075 22.9667C12.285 24.1259 13.7042 24.1259 14.5817 22.9667L15.6758 21.5042C16.4558 20.4642 17.81 20.3884 18.6983 21.3417C20.6267 23.4 22.1975 22.7175 22.1975 19.8359V7.62669C22.2083 3.26085 21.19 2.16669 17.095 2.16669H8.90499C4.80999 2.16669 3.79166 3.26085 3.79166 7.62669V19.825C3.79166 22.7175 5.37332 23.3892 7.29082 21.3417Z" stroke="white" stroke-width="1.5" stroke-linecap="round" stroke-linejoin="round"/>
<path d="M8.77073 11.9167H8.78046" stroke="white" stroke-width="2" stroke-linecap="round" stroke-linejoin="round"/>
<path d="M11.8066 11.9167H17.765" stroke="white" stroke-width="1.5" stroke-linecap="round" stroke-linejoin="round"/>
<path d="M8.77073 7.58335H8.78046" stroke="white" stroke-width="2" stroke-linecap="round" stroke-linejoin="round"/>
<path d="M11.8066 7.58331H17.765" stroke="white" stroke-width="1.5" stroke-linecap="round" stroke-linejoin="round"/>
</svg>
